<?xml version="1.0" encoding="UTF-8" standalone="no"?>
<svg xmlns="http://www.w3.org/2000/svg" width="200" height="200" viewBox="0 0 200 200">
  <defs>
    <pattern id="pinky-toe-pattern" patternUnits="userSpaceOnUse" width="100" height="100">
      <path d="M30,20 C35,15 45,15 50,20 C55,25 55,35 50,40 L40,50 C35,55 25,55 20,50 C15,45 15,35 20,30 L30,20" 
        fill="none" stroke="#FF4D8D" stroke-width="1" opacity="0.1" />
      
      <path d="M80,70 C85,65 95,65 100,70 C105,75 105,85 100,90 L90,100 C85,105 75,105 70,100 C65,95 65,85 70,80 L80,70" 
        fill="none" stroke="#FF4D8D" stroke-width="1" opacity="0.1" />
        
      <path d="M20,80 C25,75 35,75 40,80 C45,85 45,95 40,100 L30,110 C25,115 15,115 10,110 C5,105 5,95 10,90 L20,80" 
        fill="none" stroke="#FF4D8D" stroke-width="1" opacity="0.1" />
        
      <path d="M70,20 C75,15 85,15 90,20 C95,25 95,35 90,40 L80,50 C75,55 65,55 60,50 C55,45 55,35 60,30 L70,20" 
        fill="none" stroke="#FF4D8D" stroke-width="1" opacity="0.1" />
        
      <!-- Stars/sparkles -->
      <path d="M15,15 L17,13 M15,13 L17,15" stroke="#FFD700" stroke-width="0.5" opacity="0.2" />
      <path d="M85,85 L87,83 M85,83 L87,85" stroke="#FFD700" stroke-width="0.5" opacity="0.2" />
      <path d="M45,65 L47,63 M45,63 L47,65" stroke="#FFD700" stroke-width="0.5" opacity="0.2" />
      <path d="M25,95 L27,93 M25,93 L27,95" stroke="#FFD700" stroke-width="0.5" opacity="0.2" />
    </pattern>
  </defs>
  
  <!-- Apply the pattern to a rectangle that covers the entire SVG viewBox -->
  <rect width="100%" height="100%" fill="url(#pinky-toe-pattern)" />
</svg>