<?xml version="1.0" encoding="UTF-8" standalone="no"?>
<svg width="100" height="100" viewBox="0 0 100 100" xmlns="http://www.w3.org/2000/svg">
  <!-- Pinky toe foot pattern for tiled background -->
  <defs>
    <pattern id="pinky-toe-pattern" patternUnits="userSpaceOnUse" width="100" height="100">
      <rect width="100" height="100" fill="#fff5f8" opacity="0.2"/>
      
      <!-- Little foot 1 -->
      <path d="M20,20 C22,18 25,18 27,20 C29,22 29,25 27,27 L25,29 C23,31 20,31 18,29 C16,27 16,24 18,22 L20,20" 
            fill="none" stroke="#FF4D8D" stroke-width="1" opacity="0.3"/>
      
      <!-- Little foot 2 -->
      <path d="M70,30 C72,28 75,28 77,30 C79,32 79,35 77,37 L75,39 C73,41 70,41 68,39 C66,37 66,34 68,32 L70,30" 
            fill="none" stroke="#FF4D8D" stroke-width="1" opacity="0.3"/>
      
      <!-- Little foot 3 -->
      <path d="M40,60 C42,58 45,58 47,60 C49,62 49,65 47,67 L45,69 C43,71 40,71 38,69 C36,67 36,64 38,62 L40,60" 
            fill="none" stroke="#FF4D8D" stroke-width="1" opacity="0.3"/>
      
      <!-- Little foot 4 -->
      <path d="M80,70 C82,68 85,68 87,70 C89,72 89,75 87,77 L85,79 C83,81 80,81 78,79 C76,77 76,74 78,72 L80,70" 
            fill="none" stroke="#FF4D8D" stroke-width="1" opacity="0.3"/>
      
      <!-- Heart 1 -->
      <path d="M15,45 C15,42 17,40 20,40 C23,40 25,43 25,45 C25,43 27,40 30,40 C33,40 35,42 35,45 C35,50 25,55 25,55 C25,55 15,50 15,45" 
            fill="#FF4D8D" opacity="0.2" transform="scale(0.4) translate(40, 60)"/>
      
      <!-- Heart 2 -->
      <path d="M15,45 C15,42 17,40 20,40 C23,40 25,43 25,45 C25,43 27,40 30,40 C33,40 35,42 35,45 C35,50 25,55 25,55 C25,55 15,50 15,45" 
            fill="#FF4D8D" opacity="0.2" transform="scale(0.4) translate(140, 160)"/>
    </pattern>
  </defs>
  
  <rect width="100%" height="100%" fill="url(#pinky-toe-pattern)"/>
</svg>